<?xml version="1.0" encoding="UTF-8"?>
<svg id="Layer_2" data-name="Layer 2" xmlns="http://www.w3.org/2000/svg" xmlns:xlink="http://www.w3.org/1999/xlink" viewBox="0 0 531.13 305.73">
  <defs>
    <style>
      .cls-1 {
        fill: url(#linear-gradient);
      }
    </style>
    <linearGradient id="linear-gradient" x1="0" y1="152.86" x2="531.13" y2="152.86" gradientUnits="userSpaceOnUse">
      <stop offset="0" stop-color="#e9a5f1"/>
      <stop offset=".48" stop-color="#c68efd"/>
      <stop offset="1" stop-color="#8f87f1"/>
    </linearGradient>
  </defs>
  <g id="Layer_4" data-name="Layer 4">
    <path class="cls-1" d="M102.11,151.4v78.72h-29.53v-78.72h29.53ZM87.42,116.26c4,0,7.46,1.41,10.38,4.22,2.92,2.82,4.38,6.15,4.38,9.99,0,4.11-1.38,7.48-4.15,10.11-2.76,2.63-6.3,3.95-10.62,3.95s-7.86-1.32-10.62-3.95c-2.76-2.63-4.15-6-4.15-10.11,0-3.84,1.46-7.17,4.38-9.99,2.92-2.81,6.38-4.22,10.38-4.22ZM0,122.28h32.06v64.04c0,5,.8,8.33,2.41,9.99,1.6,1.66,4.78,2.49,9.51,2.49h1.66v31.27h-8.53c-11.69,0-20.79-3.41-27.32-10.23-6.53-6.82-9.79-16.28-9.79-28.39v-69.17ZM165.24,197.8l23.11-.88c-.67,9.09-4.01,16.55-10.03,22.4-6.02,5.85-13.35,8.77-21.99,8.77-9.14,0-16.85-3.22-23.14-9.65-6.29-6.44-9.44-14.33-9.44-23.66s3.18-16.47,9.53-22.78c6.35-6.31,13.97-9.46,22.86-9.46,7.76,0,14.62,2.48,20.55,7.45,5.94,4.96,9.63,11.29,11.09,18.99l-23.6.88c-2.04-2.69-4.61-4.04-7.72-4.04-2.66,0-4.84.88-6.54,2.65-1.7,1.77-2.55,4-2.55,6.69s.9,5.03,2.71,6.88c1.81,1.85,4.06,2.78,6.76,2.78,3.94,0,6.75-2.33,8.41-7ZM270.89,200.42h-35.31c-.54-1.81-.81-3.47-.81-4.99,0-2.1.37-4.17,1.12-6.18h11.83c-.83-4.67-3.43-7-7.79-7-2.91,0-5.27,1.25-7.1,3.75-1.83,2.5-2.74,5.71-2.74,9.62s.88,7.38,2.65,9.91c1.76,2.52,4.08,3.79,6.94,3.79,2.32,0,4.57-1.18,6.73-3.53l13.27,16.15c-6.19,4.92-13.06,7.38-20.62,7.38-9.22,0-16.96-3.13-23.23-9.4-6.27-6.27-9.4-14.03-9.4-23.28s3.17-17,9.5-23.35c6.33-6.35,14.11-9.53,23.32-9.53s16.58,3.1,22.7,9.31c6.12,6.21,9.19,13.85,9.19,22.94,0,.93-.08,2.4-.25,4.42ZM374.45,163.82c8.8,0,16.35,3.21,22.64,9.62,6.29,6.42,9.44,14.1,9.44,23.06s-3.19,16.83-9.56,23.22c-6.37,6.39-14.07,9.59-23.08,9.59s-16.71-3.21-23.11-9.62c-6.39-6.41-9.59-14.14-9.59-23.19s3.2-16.96,9.59-23.25c6.39-6.29,14.28-9.43,23.67-9.43ZM373.83,187.1c-2.49,0-4.61.91-6.35,2.74-1.74,1.83-2.62,4.07-2.62,6.72s.88,4.84,2.65,6.69c1.76,1.85,3.87,2.78,6.32,2.78s4.62-.92,6.38-2.78c1.76-1.85,2.65-4.08,2.65-6.69s-.87-4.89-2.62-6.72c-1.74-1.83-3.88-2.74-6.42-2.74ZM479.12,230.12h-23.29v-35.53c0-3.62-1.47-5.43-4.42-5.43s-4.36,1.81-4.36,5.43v35.53h-23.29v-35.08c0-8.2,2.68-15.11,8.04-20.73,5.36-5.62,11.92-8.42,19.68-8.42,8.88,0,16.01,3.26,21.36,9.78,4.19,5.09,6.29,12.18,6.29,21.27v33.19ZM520.23,142.92v24.1h10.46v24.93h-10.46c0,5.01.78,8.46,2.33,10.35,1.56,1.89,4.41,2.84,8.56,2.84v24.8c-1.21.04-2.1.06-2.68.06-5.27,0-10.25-1.24-14.92-3.72-4.67-2.48-8.42-5.85-11.24-10.1-3.57-5.43-5.36-12.62-5.36-21.58v-51.68h23.29ZM199.88,63.47c1.28,13,11.95,25.9,23.31,31.69,14.57,7.43,44.95,9.93,55.68-4.69,8.06-10.98.4-30.79-13.33-22.33-8.41,5.18-9.35,8.14-21.17,6.84s-15.02-7.41-12.22-18.23c6.21-24.01,50.73-29.11,71.27-27.82,26.08,1.63,69.88,18.66,65.2,51.28-2.39,16.62-19.09,10.67-16.68,26.2.75,4.82,6.12,7.68,9.87,9.12s10.05,1.38,12.47,1.35c18.99-.25,28.74-25.04,27.58-41.41C398,21.32,329.08-2.86,282.66.27c-33.9,2.29-86.95,20.79-82.79,63.2ZM298.45,300.91c18.13-9.68,23.73-29.19,26.59-45.11,3.5-19.48.77-33.68-2.69-51.67-2.82-14.69-6.34-32.97-7.62-60.88-.19-4.17-.41-8.89.79-15.1,2.62-13.63,10.58-26.47,23.66-38.16,5.77-5.15,6.27-14,1.12-19.77-5.15-5.77-14-6.26-19.77-1.11-17.77,15.87-28.71,33.96-32.51,53.76-1.82,9.46-1.48,16.8-1.26,21.66,1.37,29.93,5.1,49.31,8.09,64.88,3.25,16.88,5.2,27.07,2.62,41.43-2.62,14.6-6.28,22.19-12.22,25.36-5.43,2.9-15.07,1.73-20.75-4.64-2.91-3.26-3.88-7.26-4.18-10.05-.83-7.69-7.73-13.23-15.43-12.41-7.69.83-13.24,7.74-12.41,15.43.74,6.87,3.28,16.9,11.14,25.69,8.97,10.05,22.1,15.5,35,15.5,6.9,0,13.73-1.56,19.82-4.81Z"/>
  </g>
</svg>